<svg xmlns="http://www.w3.org/2000/svg" xmlns:xlink="http://www.w3.org/1999/xlink" width="1187" height="261" viewBox="0 0 1187 261">
  <defs>
    <polygon id="cookie-a" points="523.5 0 .875 0 199.109 141.75 405.523 84.313 345.75 22.773"/>
    <polygon id="cookie-c" points="76.941 47.961 95.941 29.168 55.23 0 .523 0"/>
    <polygon id="cookie-e" points="60.154 34.67 42.064 48.646 53.961 65.91 28.096 79.059 .957 73.607 25.934 .916"/>
  </defs>
  <g fill="none" fill-rule="evenodd">
    <g transform="translate(1 117)">
      <mask id="cookie-b" fill="#fff">
        <use xlink:href="#cookie-a"/>
      </mask>
      <g stroke="#D80E0E" mask="url(#cookie-b)">
        <g transform="rotate(55 434.013 226.353)">
          <path d="M5.33151293 5.25017117L5.33151293 505.250171M19.3315129 5.25017117L19.3315129 505.250171M12.3315129 5.25017117L12.3315129 505.250171M26.3315129 5.25017117L26.3315129 505.250171M33.3315129 5.25017117L33.3315129 505.250171M40.3315129 5.25017117L40.3315129 505.250171M47.3315129 5.25017117L47.3315129 505.250171M54.3315129 4.25017117L54.3315129 504.250171M61.3315129 4.25017117L61.3315129 504.250171M68.3315129 4.25017117L68.3315129 504.250171M75.3315129 4.25017117L75.3315129 504.250171M82.3315129 4.25017117L82.3315129 504.250171M1.80932914 1.56313694L1.80932914 501.563137M15.8093291 1.56313694L15.8093291 501.563137M8.80932914 1.56313694L8.80932914 501.563137M22.8093291 1.56313694L22.8093291 501.563137M29.8093291 1.56313694L29.8093291 501.563137M36.8093291 1.56313694L36.8093291 501.563137M43.8093291 1.56313694L43.8093291 501.563137M50.8093291.563136945L50.8093291 500.563137M57.8093291.563136945L57.8093291 500.563137M64.8093291.563136945L64.8093291 500.563137M71.8093291.563136945L71.8093291 500.563137M78.8093291.563136945L78.8093291 500.563137M89.3315129 5.25017117L89.3315129 505.250171M103.331513 5.25017117L103.331513 505.250171M96.3315129 5.25017117L96.3315129 505.250171M110.331513 5.25017117L110.331513 505.250171M117.331513 5.25017117L117.331513 505.250171M124.331513 5.25017117L124.331513 505.250171M131.331513 5.25017117L131.331513 505.250171M138.331513 4.25017117L138.331513 504.250171M145.331513 4.25017117L145.331513 504.250171M152.331513 4.25017117L152.331513 504.250171M159.331513 4.25017117L159.331513 504.250171M166.331513 4.25017117L166.331513 504.250171M85.8093291 1.56313694L85.8093291 501.563137M99.8093291 1.56313694L99.8093291 501.563137M92.8093291 1.56313694L92.8093291 501.563137M106.809329 1.56313694L106.809329 501.563137M113.809329 1.56313694L113.809329 501.563137M120.809329 1.56313694L120.809329 501.563137M127.809329 1.56313694L127.809329 501.563137M134.809329.563136945L134.809329 500.563137M141.809329.563136945L141.809329 500.563137M148.809329.563136945L148.809329 500.563137M155.809329.563136945L155.809329 500.563137M162.809329.563136945L162.809329 500.563137M173.331513 5.25017117L173.331513 505.250171M187.331513 5.25017117L187.331513 505.250171M180.331513 5.25017117L180.331513 505.250171M194.331513 5.25017117L194.331513 505.250171M201.331513 5.25017117L201.331513 505.250171M208.331513 5.25017117L208.331513 505.250171M215.331513 5.25017117L215.331513 505.250171M222.331513 4.25017117L222.331513 504.250171M229.331513 4.25017117L229.331513 504.250171M236.331513 4.25017117L236.331513 504.250171M243.331513 4.25017117L243.331513 504.250171M250.331513 4.25017117L250.331513 504.250171M169.809329 1.56313694L169.809329 501.563137M183.809329 1.56313694L183.809329 501.563137M176.809329 1.56313694L176.809329 501.563137M190.809329 1.56313694L190.809329 501.563137M197.809329 1.56313694L197.809329 501.563137M204.809329 1.56313694L204.809329 501.563137M211.809329 1.56313694L211.809329 501.563137M218.809329.563136945L218.809329 500.563137M225.809329.563136945L225.809329 500.563137M232.809329.563136945L232.809329 500.563137M239.809329.563136945L239.809329 500.563137M246.809329.563136945L246.809329 500.563137M257.331513 5.25017117L257.331513 505.250171M271.331513 5.25017117L271.331513 505.250171M264.331513 5.25017117L264.331513 505.250171M278.331513 5.25017117L278.331513 505.250171M285.331513 5.25017117L285.331513 505.250171M292.331513 5.25017117L292.331513 505.250171M299.331513 5.25017117L299.331513 505.250171M306.331513 4.25017117L306.331513 504.250171M313.331513 4.25017117L313.331513 504.250171M320.331513 4.25017117L320.331513 504.250171M327.331513 4.25017117L327.331513 504.250171M334.331513 4.25017117L334.331513 504.250171M253.809329 1.56313694L253.809329 501.563137M267.809329 1.56313694L267.809329 501.563137M260.809329 1.56313694L260.809329 501.563137M274.809329 1.56313694L274.809329 501.563137M281.809329 1.56313694L281.809329 501.563137M288.809329 1.56313694L288.809329 501.563137M295.809329 1.56313694L295.809329 501.563137M302.809329.563136945L302.809329 500.563137M309.809329.563136945L309.809329 500.563137M316.809329.563136945L316.809329 500.563137M323.809329.563136945L323.809329 500.563137M330.809329.563136945L330.809329 500.563137"/>
        </g>
      </g>
    </g>
    <g transform="translate(974 116)">
      <mask id="cookie-d" fill="#fff">
        <use xlink:href="#cookie-c"/>
      </mask>
      <g stroke="#D80E0E" mask="url(#cookie-d)">
        <g transform="rotate(55 437.496 24.333)">
          <path d="M5.33151293 5.25017117L5.33151293 505.250171M19.3315129 5.25017117L19.3315129 505.250171M12.3315129 5.25017117L12.3315129 505.250171M26.3315129 5.25017117L26.3315129 505.250171M33.3315129 5.25017117L33.3315129 505.250171M40.3315129 5.25017117L40.3315129 505.250171M47.3315129 5.25017117L47.3315129 505.250171M54.3315129 4.25017117L54.3315129 504.250171M61.3315129 4.25017117L61.3315129 504.250171M68.3315129 4.25017117L68.3315129 504.250171M75.3315129 4.25017117L75.3315129 504.250171M82.3315129 4.25017117L82.3315129 504.250171M1.80932914 1.56313694L1.80932914 501.563137M15.8093291 1.56313694L15.8093291 501.563137M8.80932914 1.56313694L8.80932914 501.563137M22.8093291 1.56313694L22.8093291 501.563137M29.8093291 1.56313694L29.8093291 501.563137M36.8093291 1.56313694L36.8093291 501.563137M43.8093291 1.56313694L43.8093291 501.563137M50.8093291.563136945L50.8093291 500.563137M57.8093291.563136945L57.8093291 500.563137M64.8093291.563136945L64.8093291 500.563137M71.8093291.563136945L71.8093291 500.563137M78.8093291.563136945L78.8093291 500.563137M89.3315129 5.25017117L89.3315129 505.250171M103.331513 5.25017117L103.331513 505.250171M96.3315129 5.25017117L96.3315129 505.250171M110.331513 5.25017117L110.331513 505.250171M117.331513 5.25017117L117.331513 505.250171M124.331513 5.25017117L124.331513 505.250171M131.331513 5.25017117L131.331513 505.250171M138.331513 4.25017117L138.331513 504.250171M145.331513 4.25017117L145.331513 504.250171M152.331513 4.25017117L152.331513 504.250171M159.331513 4.25017117L159.331513 504.250171M166.331513 4.25017117L166.331513 504.250171M85.8093291 1.56313694L85.8093291 501.563137M99.8093291 1.56313694L99.8093291 501.563137M92.8093291 1.56313694L92.8093291 501.563137M106.809329 1.56313694L106.809329 501.563137M113.809329 1.56313694L113.809329 501.563137M120.809329 1.56313694L120.809329 501.563137M127.809329 1.56313694L127.809329 501.563137M134.809329.563136945L134.809329 500.563137M141.809329.563136945L141.809329 500.563137M148.809329.563136945L148.809329 500.563137M155.809329.563136945L155.809329 500.563137M162.809329.563136945L162.809329 500.563137M173.331513 5.25017117L173.331513 505.250171M187.331513 5.25017117L187.331513 505.250171M180.331513 5.25017117L180.331513 505.250171M194.331513 5.25017117L194.331513 505.250171M201.331513 5.25017117L201.331513 505.250171M208.331513 5.25017117L208.331513 505.250171M215.331513 5.25017117L215.331513 505.250171M222.331513 4.25017117L222.331513 504.250171M229.331513 4.25017117L229.331513 504.250171M236.331513 4.25017117L236.331513 504.250171M243.331513 4.25017117L243.331513 504.250171M250.331513 4.25017117L250.331513 504.250171M169.809329 1.56313694L169.809329 501.563137M183.809329 1.56313694L183.809329 501.563137M176.809329 1.56313694L176.809329 501.563137M190.809329 1.56313694L190.809329 501.563137M197.809329 1.56313694L197.809329 501.563137M204.809329 1.56313694L204.809329 501.563137M211.809329 1.56313694L211.809329 501.563137M218.809329.563136945L218.809329 500.563137M225.809329.563136945L225.809329 500.563137M232.809329.563136945L232.809329 500.563137M239.809329.563136945L239.809329 500.563137M246.809329.563136945L246.809329 500.563137M257.331513 5.25017117L257.331513 505.250171M271.331513 5.25017117L271.331513 505.250171M264.331513 5.25017117L264.331513 505.250171M278.331513 5.25017117L278.331513 505.250171M285.331513 5.25017117L285.331513 505.250171M292.331513 5.25017117L292.331513 505.250171M299.331513 5.25017117L299.331513 505.250171M306.331513 4.25017117L306.331513 504.250171M313.331513 4.25017117L313.331513 504.250171M320.331513 4.25017117L320.331513 504.250171M327.331513 4.25017117L327.331513 504.250171M334.331513 4.25017117L334.331513 504.250171M253.809329 1.56313694L253.809329 501.563137M267.809329 1.56313694L267.809329 501.563137M260.809329 1.56313694L260.809329 501.563137M274.809329 1.56313694L274.809329 501.563137M281.809329 1.56313694L281.809329 501.563137M288.809329 1.56313694L288.809329 501.563137M295.809329 1.56313694L295.809329 501.563137M302.809329.563136945L302.809329 500.563137M309.809329.563136945L309.809329 500.563137M316.809329.563136945L316.809329 500.563137M323.809329.563136945L323.809329 500.563137M330.809329.563136945L330.809329 500.563137"/>
        </g>
      </g>
    </g>
    <g transform="translate(84 4)">
      <g transform="translate(242 39)">
        <mask id="cookie-f" fill="#fff">
          <use xlink:href="#cookie-e"/>
        </mask>
        <use stroke="#D80E0E" xlink:href="#cookie-e"/>
        <g stroke="#D80E0E" mask="url(#cookie-f)">
          <g transform="rotate(55 23.366 37.85)">
            <path d="M1 1L1 61M15 1L15 61M8 1L8 61M22 1L22 61M29 1L29 61M36 1L36 61M43 1L43 61M50 0L50 60M57 0L57 60M64 0L64 60M71 0L71 60M78 0L78 60"/>
          </g>
        </g>
        <g stroke="#D80E0E" mask="url(#cookie-f)">
          <g transform="rotate(55 28.668 36.31)">
            <path d="M1 1L1 61M15 1L15 61M8 1L8 61M22 1L22 61M29 1L29 61M36 1L36 61M43 1L43 61M50 0L50 60M57 0L57 60M64 0L64 60M71 0L71 60M78 0L78 60"/>
          </g>
        </g>
      </g>
      <path fill="#FFF" stroke="#D80E0E" stroke-width=".837" d="M955.96875,117 C718.298871,78.2920329 478.668764,156.305646 241,101.354227 C253.254815,80.086614 267.143623,87.1088567 279.398438,65.0498578 C517.810289,104.767687 775.556898,-12.9219281 1013.96875,42.1953125 C979.59375,65.0498578 968.965538,95.0164461 955.96875,117 Z"/>
      <path fill="#FFF" stroke="#D80E0E" stroke-width=".837" d="M279.384947,103.04974 C516.535356,126.940992 774.310796,43.5583973 1013.95526,80.1951948" transform="rotate(1 646.67 89.087)"/>
      <path fill="#FFF" stroke="#D80E0E" stroke-width="2" d="M139.007813,77.8002139 C152.283582,77.8002139 190.504393,85.4545108 216.707031,100.745526 C234.175457,110.939537 268.089519,134.264407 318.449219,170.720136 C315.408822,180.107223 307.991595,188.041902 296.197536,194.524174 C260.044622,214.394605 188.432568,235.744663 127.011719,221.849042 C35.5351563,201.15373 3.18323146e-12,146.479083 0,115.573024 C-4.77484718e-12,43.9974795 101.516221,-11.562518 190.504393,2.06779202 C223.407333,7.10753225 258.231225,26.2690604 287.574067,50.8675692 L287.888999,52.1296277 L259.543296,72.8132214 L278.803061,96.0847058 L264.457358,106.219471 L274.129404,119.045485 C258.129467,118.272754 244.333429,116.896307 239.390464,115.044862"/>
      <path stroke="#D91414" d="M138,224.072266 C192.501953,224.072266 270.544922,175.210938 287.613281,171.070312 C298.992188,168.309896 309.493815,168.309896 319.118164,171.070312"/>
      <g stroke="#D80E0E" transform="translate(182 78)">
        <path d="M17 .67578125L17 14.4143207M32 7L32 20.7385395M48 17L48 30.7385395M63 15.6523438L63 37.7385395M79 26L79 39.7385395M1 2L1 8.77294922"/>
      </g>
      <g stroke="#D80E0E" transform="translate(5 134)">
        <path d="M17.3008369 13.3164619L9.77300485 20.8442939M5.5869697.0303290731L.917047823 4.70025095M33.6289619 21.9883369L20.9819892 34.6353095M53.6172988 27L33.4888252 47.1284736M57.1558174 47.4614814L47.4097236 57.2075752M78.6768134 50.9404853L63.3174384 66.2998603M93.0000556 61.6172431L79.4824775 75.1348213 93.0000556 61.6172431zM104.355524 75.2617744L98.3042549 81.3130439"/>
      </g>
    </g>
    <g stroke="#D80E0E" transform="rotate(15 232.776 3919.452)">
      <path fill="#FFF" stroke-width="2" d="M28.0334067,0.0590743756 C51.0748132,19.5073977 70.676613,42.284275 83.2207031,64.1445681 C85.6067112,68.3026087 45.6794165,69.1375175 14.1369099,67.6307268 L4.9140625,55.4003906 L19.2597656,45.265625 L0,21.9941406 L28.3457031,1.31054687 L28.0334067,0.0590743756 Z"/>
      <g transform="translate(14 54)">
        <path d="M1 0L1 13.7385395M17 9L17 13.7348633"/>
      </g>
    </g>
  </g>
</svg>
